<mxfile host="65bd71144e">
    <diagram id="Vk5w7OlKVyxtce1epeKG" name="ページ1">
        <mxGraphModel dx="2141" dy="1959" grid="1" gridSize="10" guides="1" tooltips="1" connect="1" arrows="1" fold="1" page="1" pageScale="1" pageWidth="827" pageHeight="1169" math="0" shadow="0">
            <root>
                <mxCell id="0"/>
                <mxCell id="1" parent="0"/>
                <mxCell id="3" value="users" style="rounded=1;whiteSpace=wrap;html=1;fillColor=#003300;" parent="1" vertex="1">
                    <mxGeometry x="350" y="320" width="150" height="40" as="geometry"/>
                </mxCell>
                <mxCell id="4" value="id" style="rounded=0;whiteSpace=wrap;html=1;" parent="1" vertex="1">
                    <mxGeometry x="350" y="360" width="150" height="30" as="geometry"/>
                </mxCell>
                <mxCell id="6" value="email" style="rounded=0;whiteSpace=wrap;html=1;" parent="1" vertex="1">
                    <mxGeometry x="350" y="390" width="150" height="30" as="geometry"/>
                </mxCell>
                <mxCell id="7" value="encrypted_password" style="rounded=0;whiteSpace=wrap;html=1;" parent="1" vertex="1">
                    <mxGeometry x="350" y="420" width="150" height="30" as="geometry"/>
                </mxCell>
                <mxCell id="8" value="reset_password_token" style="rounded=0;whiteSpace=wrap;html=1;" parent="1" vertex="1">
                    <mxGeometry x="350" y="450" width="150" height="30" as="geometry"/>
                </mxCell>
                <mxCell id="9" value="reset_password_sent_at" style="rounded=0;whiteSpace=wrap;html=1;" parent="1" vertex="1">
                    <mxGeometry x="350" y="480" width="150" height="30" as="geometry"/>
                </mxCell>
                <mxCell id="10" value="sign_in_count" style="rounded=0;whiteSpace=wrap;html=1;" parent="1" vertex="1">
                    <mxGeometry x="350" y="510" width="150" height="30" as="geometry"/>
                </mxCell>
                <mxCell id="11" value="last_sign_in_at" style="rounded=0;whiteSpace=wrap;html=1;" parent="1" vertex="1">
                    <mxGeometry x="350" y="540" width="150" height="30" as="geometry"/>
                </mxCell>
                <mxCell id="12" value="current_sign_in_ip" style="rounded=0;whiteSpace=wrap;html=1;" parent="1" vertex="1">
                    <mxGeometry x="350" y="570" width="150" height="30" as="geometry"/>
                </mxCell>
                <mxCell id="13" value="last_sign_in_ip" style="rounded=0;whiteSpace=wrap;html=1;" parent="1" vertex="1">
                    <mxGeometry x="350" y="600" width="150" height="30" as="geometry"/>
                </mxCell>
                <mxCell id="14" value="confirmation_token" style="rounded=0;whiteSpace=wrap;html=1;" parent="1" vertex="1">
                    <mxGeometry x="350" y="630" width="150" height="30" as="geometry"/>
                </mxCell>
                <mxCell id="15" value="confirmed_at" style="rounded=0;whiteSpace=wrap;html=1;" parent="1" vertex="1">
                    <mxGeometry x="350" y="660" width="150" height="30" as="geometry"/>
                </mxCell>
                <mxCell id="16" value="confirmation_sent_at" style="rounded=0;whiteSpace=wrap;html=1;" parent="1" vertex="1">
                    <mxGeometry x="350" y="690" width="150" height="30" as="geometry"/>
                </mxCell>
                <mxCell id="17" value="unconfirmed_email" style="rounded=0;whiteSpace=wrap;html=1;" parent="1" vertex="1">
                    <mxGeometry x="350" y="720" width="150" height="30" as="geometry"/>
                </mxCell>
                <mxCell id="18" value="failed_attempts" style="rounded=0;whiteSpace=wrap;html=1;" parent="1" vertex="1">
                    <mxGeometry x="350" y="750" width="150" height="30" as="geometry"/>
                </mxCell>
                <mxCell id="19" value="unlock_token" style="rounded=0;whiteSpace=wrap;html=1;" parent="1" vertex="1">
                    <mxGeometry x="350" y="780" width="150" height="30" as="geometry"/>
                </mxCell>
                <mxCell id="20" value="locked_at" style="rounded=0;whiteSpace=wrap;html=1;" parent="1" vertex="1">
                    <mxGeometry x="350" y="810" width="150" height="30" as="geometry"/>
                </mxCell>
                <mxCell id="21" value="created_at" style="rounded=0;whiteSpace=wrap;html=1;" parent="1" vertex="1">
                    <mxGeometry x="350" y="840" width="150" height="30" as="geometry"/>
                </mxCell>
                <mxCell id="22" value="updated_at" style="rounded=0;whiteSpace=wrap;html=1;" parent="1" vertex="1">
                    <mxGeometry x="350" y="870" width="150" height="30" as="geometry"/>
                </mxCell>
                <mxCell id="23" value="admin" style="rounded=0;whiteSpace=wrap;html=1;" parent="1" vertex="1">
                    <mxGeometry x="350" y="900" width="150" height="30" as="geometry"/>
                </mxCell>
                <mxCell id="25" value="user_details" style="rounded=1;whiteSpace=wrap;html=1;fillColor=#003300;" parent="1" vertex="1">
                    <mxGeometry x="670" y="320" width="150" height="40" as="geometry"/>
                </mxCell>
                <mxCell id="26" value="id" style="rounded=0;whiteSpace=wrap;html=1;" parent="1" vertex="1">
                    <mxGeometry x="670" y="360" width="150" height="30" as="geometry"/>
                </mxCell>
                <mxCell id="27" value="account_name" style="rounded=0;whiteSpace=wrap;html=1;" parent="1" vertex="1">
                    <mxGeometry x="670" y="390" width="150" height="30" as="geometry"/>
                </mxCell>
                <mxCell id="28" value="profile_picture" style="rounded=0;whiteSpace=wrap;html=1;" parent="1" vertex="1">
                    <mxGeometry x="670" y="420" width="150" height="30" as="geometry"/>
                </mxCell>
                <mxCell id="29" value="self_introduction" style="rounded=0;whiteSpace=wrap;html=1;" parent="1" vertex="1">
                    <mxGeometry x="670" y="450" width="150" height="30" as="geometry"/>
                </mxCell>
                <mxCell id="30" value="living_country" style="rounded=0;whiteSpace=wrap;html=1;" parent="1" vertex="1">
                    <mxGeometry x="670" y="480" width="150" height="30" as="geometry"/>
                </mxCell>
                <mxCell id="31" value="native_country" style="rounded=0;whiteSpace=wrap;html=1;" parent="1" vertex="1">
                    <mxGeometry x="670" y="510" width="150" height="30" as="geometry"/>
                </mxCell>
                <mxCell id="32" value="date_of_birth" style="rounded=0;whiteSpace=wrap;html=1;" parent="1" vertex="1">
                    <mxGeometry x="670" y="540" width="150" height="30" as="geometry"/>
                </mxCell>
                <mxCell id="33" value="gender" style="rounded=0;whiteSpace=wrap;html=1;" parent="1" vertex="1">
                    <mxGeometry x="670" y="570" width="150" height="30" as="geometry"/>
                </mxCell>
                <mxCell id="45" value="" style="endArrow=none;html=1;" parent="1" edge="1">
                    <mxGeometry width="50" height="50" relative="1" as="geometry">
                        <mxPoint x="670" y="460" as="sourcePoint"/>
                        <mxPoint x="670" y="490" as="targetPoint"/>
                    </mxGeometry>
                </mxCell>
                <mxCell id="49" value="created_at" style="rounded=0;whiteSpace=wrap;html=1;" parent="1" vertex="1">
                    <mxGeometry x="670" y="600" width="150" height="30" as="geometry"/>
                </mxCell>
                <mxCell id="50" value="updated_at" style="rounded=0;whiteSpace=wrap;html=1;" parent="1" vertex="1">
                    <mxGeometry x="670" y="630" width="150" height="30" as="geometry"/>
                </mxCell>
                <mxCell id="24" value="" style="endArrow=none;html=1;exitX=1;exitY=0.5;exitDx=0;exitDy=0;entryX=0;entryY=0.5;entryDx=0;entryDy=0;" parent="1" source="8" target="63" edge="1">
                    <mxGeometry width="50" height="50" relative="1" as="geometry">
                        <mxPoint x="590" y="670" as="sourcePoint"/>
                        <mxPoint x="650" y="615" as="targetPoint"/>
                        <Array as="points">
                            <mxPoint x="590" y="465"/>
                            <mxPoint x="590" y="675"/>
                        </Array>
                    </mxGeometry>
                </mxCell>
                <mxCell id="46" value="" style="endArrow=none;html=1;" parent="1" edge="1">
                    <mxGeometry width="50" height="50" relative="1" as="geometry">
                        <mxPoint x="510" y="450" as="sourcePoint"/>
                        <mxPoint x="510" y="480" as="targetPoint"/>
                    </mxGeometry>
                </mxCell>
                <mxCell id="47" value="" style="endArrow=none;html=1;" parent="1" edge="1">
                    <mxGeometry width="50" height="50" relative="1" as="geometry">
                        <mxPoint x="520" y="450" as="sourcePoint"/>
                        <mxPoint x="520" y="480" as="targetPoint"/>
                    </mxGeometry>
                </mxCell>
                <mxCell id="63" value="user_id (FK)" style="rounded=0;whiteSpace=wrap;html=1;" parent="1" vertex="1">
                    <mxGeometry x="670" y="660" width="150" height="30" as="geometry"/>
                </mxCell>
                <mxCell id="65" value="" style="endArrow=none;html=1;" parent="1" edge="1">
                    <mxGeometry width="50" height="50" relative="1" as="geometry">
                        <mxPoint x="660" y="660" as="sourcePoint"/>
                        <mxPoint x="660" y="690" as="targetPoint"/>
                    </mxGeometry>
                </mxCell>
                <mxCell id="66" value="" style="endArrow=none;html=1;" parent="1" edge="1">
                    <mxGeometry width="50" height="50" relative="1" as="geometry">
                        <mxPoint x="650" y="660" as="sourcePoint"/>
                        <mxPoint x="650" y="690" as="targetPoint"/>
                    </mxGeometry>
                </mxCell>
                <mxCell id="88" value="" style="group" parent="1" vertex="1" connectable="0">
                    <mxGeometry x="670" y="730" width="150" height="190" as="geometry"/>
                </mxCell>
                <mxCell id="69" value="learn_languages" style="rounded=1;whiteSpace=wrap;html=1;fillColor=#003300;" parent="88" vertex="1">
                    <mxGeometry width="150" height="40" as="geometry"/>
                </mxCell>
                <mxCell id="71" value="id" style="rounded=0;whiteSpace=wrap;html=1;" parent="88" vertex="1">
                    <mxGeometry y="40" width="150" height="30" as="geometry"/>
                </mxCell>
                <mxCell id="72" value="learn_language" style="rounded=0;whiteSpace=wrap;html=1;" parent="88" vertex="1">
                    <mxGeometry y="70" width="150" height="30" as="geometry"/>
                </mxCell>
                <mxCell id="73" value="created_at" style="rounded=0;whiteSpace=wrap;html=1;" parent="88" vertex="1">
                    <mxGeometry y="100" width="150" height="30" as="geometry"/>
                </mxCell>
                <mxCell id="74" value="updated_at" style="rounded=0;whiteSpace=wrap;html=1;" parent="88" vertex="1">
                    <mxGeometry y="130" width="150" height="30" as="geometry"/>
                </mxCell>
                <mxCell id="75" value="user_id (FK)" style="rounded=0;whiteSpace=wrap;html=1;" parent="88" vertex="1">
                    <mxGeometry y="160" width="150" height="30" as="geometry"/>
                </mxCell>
                <mxCell id="76" value="" style="endArrow=none;html=1;exitX=1;exitY=0.5;exitDx=0;exitDy=0;entryX=0;entryY=0.5;entryDx=0;entryDy=0;" parent="1" source="19" target="75" edge="1">
                    <mxGeometry width="50" height="50" relative="1" as="geometry">
                        <mxPoint x="500" y="690" as="sourcePoint"/>
                        <mxPoint x="670" y="900" as="targetPoint"/>
                        <Array as="points">
                            <mxPoint x="590" y="795"/>
                            <mxPoint x="590" y="860"/>
                            <mxPoint x="590" y="905"/>
                        </Array>
                    </mxGeometry>
                </mxCell>
                <mxCell id="101" value="" style="endArrow=none;html=1;exitX=1;exitY=0.5;exitDx=0;exitDy=0;entryX=0;entryY=0.5;entryDx=0;entryDy=0;" parent="1" source="23" target="108" edge="1">
                    <mxGeometry width="50" height="50" relative="1" as="geometry">
                        <mxPoint x="500" y="1035" as="sourcePoint"/>
                        <mxPoint x="670" y="1145" as="targetPoint"/>
                        <Array as="points">
                            <mxPoint x="590" y="915"/>
                            <mxPoint x="590" y="1175"/>
                        </Array>
                    </mxGeometry>
                </mxCell>
                <mxCell id="107" value="" style="endArrow=none;html=1;" parent="1" edge="1">
                    <mxGeometry width="50" height="50" relative="1" as="geometry">
                        <mxPoint x="520" y="900" as="sourcePoint"/>
                        <mxPoint x="520" y="930" as="targetPoint"/>
                    </mxGeometry>
                </mxCell>
                <mxCell id="90" value="speak_languages" style="rounded=1;whiteSpace=wrap;html=1;fillColor=#003300;" parent="1" vertex="1">
                    <mxGeometry x="670" y="970" width="150" height="40" as="geometry"/>
                </mxCell>
                <mxCell id="91" value="id" style="rounded=0;whiteSpace=wrap;html=1;" parent="1" vertex="1">
                    <mxGeometry x="670" y="1010" width="150" height="30" as="geometry"/>
                </mxCell>
                <mxCell id="92" value="speak_language" style="rounded=0;whiteSpace=wrap;html=1;" parent="1" vertex="1">
                    <mxGeometry x="670" y="1040" width="150" height="30" as="geometry"/>
                </mxCell>
                <mxCell id="93" value="created_at" style="rounded=0;whiteSpace=wrap;html=1;" parent="1" vertex="1">
                    <mxGeometry x="670" y="1100" width="150" height="30" as="geometry"/>
                </mxCell>
                <mxCell id="94" value="updated_at" style="rounded=0;whiteSpace=wrap;html=1;" parent="1" vertex="1">
                    <mxGeometry x="670" y="1130" width="150" height="30" as="geometry"/>
                </mxCell>
                <mxCell id="95" value="native_language" style="rounded=0;whiteSpace=wrap;html=1;" parent="1" vertex="1">
                    <mxGeometry x="670" y="1070" width="150" height="30" as="geometry"/>
                </mxCell>
                <mxCell id="108" value="user_id (FK)" style="rounded=0;whiteSpace=wrap;html=1;" parent="1" vertex="1">
                    <mxGeometry x="670" y="1160" width="150" height="30" as="geometry"/>
                </mxCell>
                <mxCell id="110" value="" style="endArrow=none;html=1;exitX=0;exitY=0.25;exitDx=0;exitDy=0;" parent="1" edge="1" source="108">
                    <mxGeometry width="50" height="50" relative="1" as="geometry">
                        <mxPoint x="660" y="1160" as="sourcePoint"/>
                        <mxPoint x="660" y="1175" as="targetPoint"/>
                    </mxGeometry>
                </mxCell>
                <mxCell id="111" value="" style="endArrow=none;html=1;exitX=0;exitY=0.75;exitDx=0;exitDy=0;" parent="1" edge="1" source="108">
                    <mxGeometry width="50" height="50" relative="1" as="geometry">
                        <mxPoint x="650" y="1160" as="sourcePoint"/>
                        <mxPoint x="660" y="1175" as="targetPoint"/>
                    </mxGeometry>
                </mxCell>
                <mxCell id="128" value="" style="endArrow=none;html=1;exitX=0;exitY=0.5;exitDx=0;exitDy=0;entryX=1;entryY=0.5;entryDx=0;entryDy=0;" parent="1" source="8" target="125" edge="1">
                    <mxGeometry width="50" height="50" relative="1" as="geometry">
                        <mxPoint x="510" y="475" as="sourcePoint"/>
                        <mxPoint x="680" y="685" as="targetPoint"/>
                        <Array as="points">
                            <mxPoint x="280" y="465"/>
                            <mxPoint x="280" y="735"/>
                        </Array>
                    </mxGeometry>
                </mxCell>
                <mxCell id="134" value="" style="group" parent="1" vertex="1" connectable="0">
                    <mxGeometry x="30" y="320" width="150" height="430" as="geometry"/>
                </mxCell>
                <mxCell id="114" value="game_accounts" style="rounded=1;whiteSpace=wrap;html=1;fillColor=#003300;" parent="134" vertex="1">
                    <mxGeometry width="150" height="40" as="geometry"/>
                </mxCell>
                <mxCell id="115" value="id" style="rounded=0;whiteSpace=wrap;html=1;" parent="134" vertex="1">
                    <mxGeometry y="40" width="150" height="30" as="geometry"/>
                </mxCell>
                <mxCell id="116" value="discord_id" style="rounded=0;whiteSpace=wrap;html=1;" parent="134" vertex="1">
                    <mxGeometry y="70" width="150" height="30" as="geometry"/>
                </mxCell>
                <mxCell id="117" value="twitter_id" style="rounded=0;whiteSpace=wrap;html=1;" parent="134" vertex="1">
                    <mxGeometry y="100" width="150" height="30" as="geometry"/>
                </mxCell>
                <mxCell id="118" value="steam_id" style="rounded=0;whiteSpace=wrap;html=1;" parent="134" vertex="1">
                    <mxGeometry y="130" width="150" height="30" as="geometry"/>
                </mxCell>
                <mxCell id="119" value="origin_id" style="rounded=0;whiteSpace=wrap;html=1;" parent="134" vertex="1">
                    <mxGeometry y="160" width="150" height="30" as="geometry"/>
                </mxCell>
                <mxCell id="120" value="riot_id" style="rounded=0;whiteSpace=wrap;html=1;" parent="134" vertex="1">
                    <mxGeometry y="190" width="150" height="30" as="geometry"/>
                </mxCell>
                <mxCell id="121" value="psn_id" style="rounded=0;whiteSpace=wrap;html=1;" parent="134" vertex="1">
                    <mxGeometry y="220" width="150" height="30" as="geometry"/>
                </mxCell>
                <mxCell id="122" value="xbox_id" style="rounded=0;whiteSpace=wrap;html=1;" parent="134" vertex="1">
                    <mxGeometry y="250" width="150" height="30" as="geometry"/>
                </mxCell>
                <mxCell id="123" value="nintendo_id" style="rounded=0;whiteSpace=wrap;html=1;" parent="134" vertex="1">
                    <mxGeometry y="280" width="150" height="30" as="geometry"/>
                </mxCell>
                <mxCell id="124" value="other_id" style="rounded=0;whiteSpace=wrap;html=1;" parent="134" vertex="1">
                    <mxGeometry y="310" width="150" height="30" as="geometry"/>
                </mxCell>
                <mxCell id="125" value="user_id (FK)" style="rounded=0;whiteSpace=wrap;html=1;" parent="134" vertex="1">
                    <mxGeometry y="400" width="150" height="30" as="geometry"/>
                </mxCell>
                <mxCell id="126" value="created_at" style="rounded=0;whiteSpace=wrap;html=1;" parent="134" vertex="1">
                    <mxGeometry y="340" width="150" height="30" as="geometry"/>
                </mxCell>
                <mxCell id="127" value="updated_at" style="rounded=0;whiteSpace=wrap;html=1;" parent="134" vertex="1">
                    <mxGeometry y="370" width="150" height="30" as="geometry"/>
                </mxCell>
                <mxCell id="130" value="" style="endArrow=none;html=1;" parent="1" edge="1">
                    <mxGeometry width="50" height="50" relative="1" as="geometry">
                        <mxPoint x="340" y="450" as="sourcePoint"/>
                        <mxPoint x="340" y="480" as="targetPoint"/>
                    </mxGeometry>
                </mxCell>
                <mxCell id="131" value="" style="endArrow=none;html=1;" parent="1" edge="1">
                    <mxGeometry width="50" height="50" relative="1" as="geometry">
                        <mxPoint x="330" y="450" as="sourcePoint"/>
                        <mxPoint x="330" y="480" as="targetPoint"/>
                    </mxGeometry>
                </mxCell>
                <mxCell id="138" value="" style="endArrow=none;html=1;" parent="1" edge="1">
                    <mxGeometry width="50" height="50" relative="1" as="geometry">
                        <mxPoint x="190" y="720" as="sourcePoint"/>
                        <mxPoint x="190" y="750" as="targetPoint"/>
                    </mxGeometry>
                </mxCell>
                <mxCell id="139" value="" style="endArrow=none;html=1;" parent="1" edge="1">
                    <mxGeometry width="50" height="50" relative="1" as="geometry">
                        <mxPoint x="200" y="720" as="sourcePoint"/>
                        <mxPoint x="200" y="750" as="targetPoint"/>
                    </mxGeometry>
                </mxCell>
                <mxCell id="140" value="" style="group" parent="1" vertex="1" connectable="0">
                    <mxGeometry x="30" y="800" width="150" height="190" as="geometry"/>
                </mxCell>
                <mxCell id="141" value="games" style="rounded=1;whiteSpace=wrap;html=1;fillColor=#003300;" parent="140" vertex="1">
                    <mxGeometry width="150" height="40" as="geometry"/>
                </mxCell>
                <mxCell id="142" value="id" style="rounded=0;whiteSpace=wrap;html=1;" parent="140" vertex="1">
                    <mxGeometry y="40" width="150" height="30" as="geometry"/>
                </mxCell>
                <mxCell id="143" value="name" style="rounded=0;whiteSpace=wrap;html=1;" parent="140" vertex="1">
                    <mxGeometry y="70" width="150" height="30" as="geometry"/>
                </mxCell>
                <mxCell id="144" value="created_at" style="rounded=0;whiteSpace=wrap;html=1;" parent="140" vertex="1">
                    <mxGeometry y="100" width="150" height="30" as="geometry"/>
                </mxCell>
                <mxCell id="145" value="updated_at" style="rounded=0;whiteSpace=wrap;html=1;" parent="140" vertex="1">
                    <mxGeometry y="130" width="150" height="30" as="geometry"/>
                </mxCell>
                <mxCell id="146" value="user_id (FK)" style="rounded=0;whiteSpace=wrap;html=1;" parent="140" vertex="1">
                    <mxGeometry y="160" width="150" height="30" as="geometry"/>
                </mxCell>
                <mxCell id="147" value="" style="endArrow=none;html=1;exitX=1;exitY=0.5;exitDx=0;exitDy=0;entryX=0;entryY=0.5;entryDx=0;entryDy=0;" parent="1" source="146" target="23" edge="1">
                    <mxGeometry width="50" height="50" relative="1" as="geometry">
                        <mxPoint x="180" y="810" as="sourcePoint"/>
                        <mxPoint x="350" y="920" as="targetPoint"/>
                        <Array as="points">
                            <mxPoint x="270" y="975"/>
                            <mxPoint x="270" y="915"/>
                        </Array>
                    </mxGeometry>
                </mxCell>
                <mxCell id="155" value="" style="endArrow=none;html=1;" parent="1" edge="1">
                    <mxGeometry width="50" height="50" relative="1" as="geometry">
                        <mxPoint x="330" y="900" as="sourcePoint"/>
                        <mxPoint x="330" y="930" as="targetPoint"/>
                    </mxGeometry>
                </mxCell>
                <mxCell id="159" value="" style="endArrow=none;html=1;entryX=1;entryY=0.75;entryDx=0;entryDy=0;" parent="1" target="146" edge="1">
                    <mxGeometry width="50" height="50" relative="1" as="geometry">
                        <mxPoint x="200" y="975" as="sourcePoint"/>
                        <mxPoint x="190" y="990" as="targetPoint"/>
                    </mxGeometry>
                </mxCell>
                <mxCell id="160" value="" style="endArrow=none;html=1;exitX=1;exitY=0.25;exitDx=0;exitDy=0;" parent="1" source="146" edge="1">
                    <mxGeometry width="50" height="50" relative="1" as="geometry">
                        <mxPoint x="200" y="960" as="sourcePoint"/>
                        <mxPoint x="200" y="975" as="targetPoint"/>
                    </mxGeometry>
                </mxCell>
                <mxCell id="161" value="" style="group" parent="1" vertex="1" connectable="0">
                    <mxGeometry x="-290" y="800" width="150" height="190" as="geometry"/>
                </mxCell>
                <mxCell id="162" value="game_relations" style="rounded=1;whiteSpace=wrap;html=1;fillColor=#003300;" parent="161" vertex="1">
                    <mxGeometry width="150" height="40" as="geometry"/>
                </mxCell>
                <mxCell id="163" value="id" style="rounded=0;whiteSpace=wrap;html=1;" parent="161" vertex="1">
                    <mxGeometry y="40" width="150" height="30" as="geometry"/>
                </mxCell>
                <mxCell id="164" value="created_at" style="rounded=0;whiteSpace=wrap;html=1;" parent="161" vertex="1">
                    <mxGeometry y="70" width="150" height="30" as="geometry"/>
                </mxCell>
                <mxCell id="165" value="updated_at" style="rounded=0;whiteSpace=wrap;html=1;" parent="161" vertex="1">
                    <mxGeometry y="100" width="150" height="30" as="geometry"/>
                </mxCell>
                <mxCell id="166" value="game_id (FK)" style="rounded=0;whiteSpace=wrap;html=1;" parent="161" vertex="1">
                    <mxGeometry y="130" width="150" height="30" as="geometry"/>
                </mxCell>
                <mxCell id="167" value="game_platform_id (FK)" style="rounded=0;whiteSpace=wrap;html=1;" parent="161" vertex="1">
                    <mxGeometry y="160" width="150" height="30" as="geometry"/>
                </mxCell>
                <mxCell id="173" value="" style="endArrow=none;html=1;exitX=1;exitY=0.5;exitDx=0;exitDy=0;entryX=0;entryY=0.5;entryDx=0;entryDy=0;" parent="1" source="166" target="145" edge="1">
                    <mxGeometry width="50" height="50" relative="1" as="geometry">
                        <mxPoint x="190" y="985" as="sourcePoint"/>
                        <mxPoint x="360" y="925" as="targetPoint"/>
                        <Array as="points"/>
                    </mxGeometry>
                </mxCell>
                <mxCell id="170" value="" style="endArrow=none;html=1;" parent="1" edge="1">
                    <mxGeometry width="50" height="50" relative="1" as="geometry">
                        <mxPoint x="10" y="930" as="sourcePoint"/>
                        <mxPoint x="10" y="960" as="targetPoint"/>
                    </mxGeometry>
                </mxCell>
                <mxCell id="171" value="" style="endArrow=none;html=1;entryX=1;entryY=0.75;entryDx=0;entryDy=0;" parent="1" target="166" edge="1">
                    <mxGeometry width="50" height="50" relative="1" as="geometry">
                        <mxPoint x="-120" y="945" as="sourcePoint"/>
                        <mxPoint x="-130" y="960" as="targetPoint"/>
                    </mxGeometry>
                </mxCell>
                <mxCell id="172" value="" style="endArrow=none;html=1;exitX=1;exitY=0.25;exitDx=0;exitDy=0;" parent="1" source="166" edge="1">
                    <mxGeometry width="50" height="50" relative="1" as="geometry">
                        <mxPoint x="-120" y="930" as="sourcePoint"/>
                        <mxPoint x="-120" y="945" as="targetPoint"/>
                    </mxGeometry>
                </mxCell>
                <mxCell id="174" value="" style="group" parent="1" vertex="1" connectable="0">
                    <mxGeometry x="-610" y="800" width="150" height="190" as="geometry"/>
                </mxCell>
                <mxCell id="175" value="game_platforms" style="rounded=1;whiteSpace=wrap;html=1;fillColor=#003300;" parent="174" vertex="1">
                    <mxGeometry width="150" height="40" as="geometry"/>
                </mxCell>
                <mxCell id="176" value="id" style="rounded=0;whiteSpace=wrap;html=1;" parent="174" vertex="1">
                    <mxGeometry y="40" width="150" height="30" as="geometry"/>
                </mxCell>
                <mxCell id="177" value="name" style="rounded=0;whiteSpace=wrap;html=1;" parent="174" vertex="1">
                    <mxGeometry y="70" width="150" height="30" as="geometry"/>
                </mxCell>
                <mxCell id="178" value="game_platform_picture" style="rounded=0;whiteSpace=wrap;html=1;" parent="174" vertex="1">
                    <mxGeometry y="100" width="150" height="30" as="geometry"/>
                </mxCell>
                <mxCell id="179" value="created_at" style="rounded=0;whiteSpace=wrap;html=1;" parent="174" vertex="1">
                    <mxGeometry y="130" width="150" height="30" as="geometry"/>
                </mxCell>
                <mxCell id="180" value="updated_at" style="rounded=0;whiteSpace=wrap;html=1;" parent="174" vertex="1">
                    <mxGeometry y="160" width="150" height="30" as="geometry"/>
                </mxCell>
                <mxCell id="182" value="" style="endArrow=none;html=1;exitX=0;exitY=0.25;exitDx=0;exitDy=0;" parent="1" source="167" edge="1">
                    <mxGeometry width="50" height="50" relative="1" as="geometry">
                        <mxPoint x="-300" y="960" as="sourcePoint"/>
                        <mxPoint x="-310" y="975" as="targetPoint"/>
                    </mxGeometry>
                </mxCell>
                <mxCell id="183" value="" style="endArrow=none;html=1;exitX=0;exitY=0.75;exitDx=0;exitDy=0;" parent="1" source="167" edge="1">
                    <mxGeometry width="50" height="50" relative="1" as="geometry">
                        <mxPoint x="-310" y="960" as="sourcePoint"/>
                        <mxPoint x="-310" y="975" as="targetPoint"/>
                    </mxGeometry>
                </mxCell>
                <mxCell id="185" value="" style="endArrow=none;html=1;" parent="1" edge="1">
                    <mxGeometry width="50" height="50" relative="1" as="geometry">
                        <mxPoint x="-440" y="960" as="sourcePoint"/>
                        <mxPoint x="-440" y="990" as="targetPoint"/>
                    </mxGeometry>
                </mxCell>
                <mxCell id="186" value="" style="endArrow=none;html=1;exitX=1;exitY=0.5;exitDx=0;exitDy=0;entryX=0;entryY=0.5;entryDx=0;entryDy=0;" parent="1" edge="1">
                    <mxGeometry width="50" height="50" relative="1" as="geometry">
                        <mxPoint x="-460" y="974.5" as="sourcePoint"/>
                        <mxPoint x="-290" y="974.5" as="targetPoint"/>
                        <Array as="points"/>
                    </mxGeometry>
                </mxCell>
                <mxCell id="187" value="" style="endArrow=none;html=1;entryX=0.5;entryY=0;entryDx=0;entryDy=0;" parent="1" target="3" edge="1">
                    <mxGeometry width="50" height="50" relative="1" as="geometry">
                        <mxPoint x="425" y="140" as="sourcePoint"/>
                        <mxPoint x="480" y="250" as="targetPoint"/>
                        <Array as="points"/>
                    </mxGeometry>
                </mxCell>
                <mxCell id="190" value="" style="endArrow=none;html=1;" parent="1" edge="1">
                    <mxGeometry width="50" height="50" relative="1" as="geometry">
                        <mxPoint x="440" y="300" as="sourcePoint"/>
                        <mxPoint x="410" y="300" as="targetPoint"/>
                    </mxGeometry>
                </mxCell>
                <mxCell id="191" value="" style="endArrow=none;html=1;exitX=0.553;exitY=1.067;exitDx=0;exitDy=0;exitPerimeter=0;" parent="1" source="199" edge="1">
                    <mxGeometry width="50" height="50" relative="1" as="geometry">
                        <mxPoint x="440" y="160" as="sourcePoint"/>
                        <mxPoint x="425" y="160" as="targetPoint"/>
                    </mxGeometry>
                </mxCell>
                <mxCell id="192" value="" style="endArrow=none;html=1;entryX=0.447;entryY=1;entryDx=0;entryDy=0;entryPerimeter=0;" parent="1" target="199" edge="1">
                    <mxGeometry width="50" height="50" relative="1" as="geometry">
                        <mxPoint x="425" y="160" as="sourcePoint"/>
                        <mxPoint x="410" y="140" as="targetPoint"/>
                    </mxGeometry>
                </mxCell>
                <mxCell id="194" value="recruitments" style="rounded=1;whiteSpace=wrap;html=1;fillColor=#003300;" parent="1" vertex="1">
                    <mxGeometry x="350" y="-80" width="150" height="40" as="geometry"/>
                </mxCell>
                <mxCell id="195" value="id" style="rounded=0;whiteSpace=wrap;html=1;" parent="1" vertex="1">
                    <mxGeometry x="350" y="-40" width="150" height="30" as="geometry"/>
                </mxCell>
                <mxCell id="196" value="title" style="rounded=0;whiteSpace=wrap;html=1;" parent="1" vertex="1">
                    <mxGeometry x="350" y="-10" width="150" height="30" as="geometry"/>
                </mxCell>
                <mxCell id="197" value="content" style="rounded=0;whiteSpace=wrap;html=1;" parent="1" vertex="1">
                    <mxGeometry x="350" y="20" width="150" height="30" as="geometry"/>
                </mxCell>
                <mxCell id="198" value="created_at" style="rounded=0;whiteSpace=wrap;html=1;" parent="1" vertex="1">
                    <mxGeometry x="350" y="50" width="150" height="30" as="geometry"/>
                </mxCell>
                <mxCell id="199" value="user_id (FK)" style="rounded=0;whiteSpace=wrap;html=1;" parent="1" vertex="1">
                    <mxGeometry x="350" y="110" width="150" height="30" as="geometry"/>
                </mxCell>
                <mxCell id="200" value="updated_at" style="rounded=0;whiteSpace=wrap;html=1;" parent="1" vertex="1">
                    <mxGeometry x="350" y="80" width="150" height="30" as="geometry"/>
                </mxCell>
                <mxCell id="230" value="" style="group" parent="1" vertex="1" connectable="0">
                    <mxGeometry x="30" y="1100" width="150" height="220" as="geometry"/>
                </mxCell>
                <mxCell id="229" value="chat_room_id (FK)" style="rounded=0;whiteSpace=wrap;html=1;" parent="230" vertex="1">
                    <mxGeometry y="190" width="150" height="30" as="geometry"/>
                </mxCell>
                <mxCell id="202" value="messages" style="rounded=1;whiteSpace=wrap;html=1;fillColor=#003300;" parent="230" vertex="1">
                    <mxGeometry width="150" height="40" as="geometry"/>
                </mxCell>
                <mxCell id="203" value="id" style="rounded=0;whiteSpace=wrap;html=1;" parent="230" vertex="1">
                    <mxGeometry y="40" width="150" height="30" as="geometry"/>
                </mxCell>
                <mxCell id="204" value="message" style="rounded=0;whiteSpace=wrap;html=1;" parent="230" vertex="1">
                    <mxGeometry y="70" width="150" height="30" as="geometry"/>
                </mxCell>
                <mxCell id="205" value="created_at" style="rounded=0;whiteSpace=wrap;html=1;" parent="230" vertex="1">
                    <mxGeometry y="100" width="150" height="30" as="geometry"/>
                </mxCell>
                <mxCell id="206" value="updated_at" style="rounded=0;whiteSpace=wrap;html=1;" parent="230" vertex="1">
                    <mxGeometry y="130" width="150" height="30" as="geometry"/>
                </mxCell>
                <mxCell id="207" value="user_id (FK)" style="rounded=0;whiteSpace=wrap;html=1;" parent="230" vertex="1">
                    <mxGeometry y="160" width="150" height="30" as="geometry"/>
                </mxCell>
                <mxCell id="231" value="" style="group" parent="1" vertex="1" connectable="0">
                    <mxGeometry x="350" y="1450" width="150" height="130" as="geometry"/>
                </mxCell>
                <mxCell id="209" value="chat_rooms" style="rounded=1;whiteSpace=wrap;html=1;fillColor=#003300;" parent="231" vertex="1">
                    <mxGeometry y="10" width="150" height="40" as="geometry"/>
                </mxCell>
                <mxCell id="210" value="id" style="rounded=0;whiteSpace=wrap;html=1;" parent="231" vertex="1">
                    <mxGeometry y="50" width="150" height="30" as="geometry"/>
                </mxCell>
                <mxCell id="212" value="created_at" style="rounded=0;whiteSpace=wrap;html=1;" parent="231" vertex="1">
                    <mxGeometry y="80" width="150" height="30" as="geometry"/>
                </mxCell>
                <mxCell id="213" value="updated_at" style="rounded=0;whiteSpace=wrap;html=1;" parent="231" vertex="1">
                    <mxGeometry y="110" width="150" height="30" as="geometry"/>
                </mxCell>
                <mxCell id="233" value="" style="group" parent="1" vertex="1" connectable="0">
                    <mxGeometry x="350" y="1100" width="150" height="190" as="geometry"/>
                </mxCell>
                <mxCell id="216" value="participants" style="rounded=1;whiteSpace=wrap;html=1;fillColor=#003300;" parent="233" vertex="1">
                    <mxGeometry width="150" height="40" as="geometry"/>
                </mxCell>
                <mxCell id="217" value="id" style="rounded=0;whiteSpace=wrap;html=1;" parent="233" vertex="1">
                    <mxGeometry y="40" width="150" height="30" as="geometry"/>
                </mxCell>
                <mxCell id="219" value="created_at" style="rounded=0;whiteSpace=wrap;html=1;" parent="233" vertex="1">
                    <mxGeometry y="70" width="150" height="30" as="geometry"/>
                </mxCell>
                <mxCell id="220" value="updated_at" style="rounded=0;whiteSpace=wrap;html=1;" parent="233" vertex="1">
                    <mxGeometry y="100" width="150" height="30" as="geometry"/>
                </mxCell>
                <mxCell id="221" value="user_id (FK)" style="rounded=0;whiteSpace=wrap;html=1;" parent="233" vertex="1">
                    <mxGeometry y="130" width="150" height="30" as="geometry"/>
                </mxCell>
                <mxCell id="232" value="chat_room_id (FK)" style="rounded=0;whiteSpace=wrap;html=1;" parent="233" vertex="1">
                    <mxGeometry y="160" width="150" height="30" as="geometry"/>
                </mxCell>
                <mxCell id="234" value="" style="endArrow=none;html=1;entryX=0.5;entryY=0;entryDx=0;entryDy=0;exitX=0.5;exitY=1;exitDx=0;exitDy=0;" parent="1" source="23" target="216" edge="1">
                    <mxGeometry width="50" height="50" relative="1" as="geometry">
                        <mxPoint x="560" y="880" as="sourcePoint"/>
                        <mxPoint x="435" y="330" as="targetPoint"/>
                        <Array as="points"/>
                    </mxGeometry>
                </mxCell>
                <mxCell id="235" value="" style="endArrow=none;html=1;exitX=0.42;exitY=0;exitDx=0;exitDy=0;exitPerimeter=0;" parent="1" source="216" edge="1">
                    <mxGeometry width="50" height="50" relative="1" as="geometry">
                        <mxPoint x="560" y="840" as="sourcePoint"/>
                        <mxPoint x="425" y="1080" as="targetPoint"/>
                    </mxGeometry>
                </mxCell>
                <mxCell id="236" value="" style="endArrow=none;html=1;exitX=0.573;exitY=-0.025;exitDx=0;exitDy=0;exitPerimeter=0;" parent="1" source="216" edge="1">
                    <mxGeometry width="50" height="50" relative="1" as="geometry">
                        <mxPoint x="423" y="1110" as="sourcePoint"/>
                        <mxPoint x="423" y="1080" as="targetPoint"/>
                    </mxGeometry>
                </mxCell>
                <mxCell id="237" value="" style="endArrow=none;html=1;" parent="1" edge="1">
                    <mxGeometry width="50" height="50" relative="1" as="geometry">
                        <mxPoint x="440" y="950" as="sourcePoint"/>
                        <mxPoint x="410" y="950" as="targetPoint"/>
                    </mxGeometry>
                </mxCell>
                <mxCell id="239" value="" style="endArrow=none;html=1;entryX=0.5;entryY=0;entryDx=0;entryDy=0;exitX=0.5;exitY=1;exitDx=0;exitDy=0;" parent="1" edge="1">
                    <mxGeometry width="50" height="50" relative="1" as="geometry">
                        <mxPoint x="424.5" y="1290" as="sourcePoint"/>
                        <mxPoint x="424.5" y="1460" as="targetPoint"/>
                        <Array as="points"/>
                    </mxGeometry>
                </mxCell>
                <mxCell id="240" value="" style="endArrow=none;html=1;exitX=0.58;exitY=1;exitDx=0;exitDy=0;exitPerimeter=0;" parent="1" source="232" edge="1">
                    <mxGeometry width="50" height="50" relative="1" as="geometry">
                        <mxPoint x="445.9499999999998" y="1109" as="sourcePoint"/>
                        <mxPoint x="425" y="1310" as="targetPoint"/>
                    </mxGeometry>
                </mxCell>
                <mxCell id="241" value="" style="endArrow=none;html=1;" parent="1" edge="1">
                    <mxGeometry width="50" height="50" relative="1" as="geometry">
                        <mxPoint x="410" y="1290" as="sourcePoint"/>
                        <mxPoint x="423" y="1310" as="targetPoint"/>
                    </mxGeometry>
                </mxCell>
                <mxCell id="242" value="" style="endArrow=none;html=1;" parent="1" edge="1">
                    <mxGeometry width="50" height="50" relative="1" as="geometry">
                        <mxPoint x="440" y="1440" as="sourcePoint"/>
                        <mxPoint x="410" y="1440" as="targetPoint"/>
                    </mxGeometry>
                </mxCell>
                <mxCell id="243" value="" style="endArrow=none;html=1;entryX=0.5;entryY=0;entryDx=0;entryDy=0;" parent="1" target="202" edge="1">
                    <mxGeometry width="50" height="50" relative="1" as="geometry">
                        <mxPoint x="370" y="930" as="sourcePoint"/>
                        <mxPoint x="434.5" y="1470" as="targetPoint"/>
                        <Array as="points">
                            <mxPoint x="370" y="1040"/>
                            <mxPoint x="105" y="1040"/>
                        </Array>
                    </mxGeometry>
                </mxCell>
                <mxCell id="244" value="" style="endArrow=none;html=1;" parent="1" edge="1">
                    <mxGeometry width="50" height="50" relative="1" as="geometry">
                        <mxPoint x="380" y="950" as="sourcePoint"/>
                        <mxPoint x="360" y="950" as="targetPoint"/>
                    </mxGeometry>
                </mxCell>
                <mxCell id="245" value="" style="endArrow=none;html=1;exitX=0.6;exitY=0;exitDx=0;exitDy=0;exitPerimeter=0;" parent="1" source="202" edge="1">
                    <mxGeometry width="50" height="50" relative="1" as="geometry">
                        <mxPoint x="110" y="1100" as="sourcePoint"/>
                        <mxPoint x="105" y="1080" as="targetPoint"/>
                    </mxGeometry>
                </mxCell>
                <mxCell id="246" value="" style="endArrow=none;html=1;exitX=0.4;exitY=0;exitDx=0;exitDy=0;exitPerimeter=0;" parent="1" source="202" edge="1">
                    <mxGeometry width="50" height="50" relative="1" as="geometry">
                        <mxPoint x="100" y="1100" as="sourcePoint"/>
                        <mxPoint x="105" y="1080" as="targetPoint"/>
                    </mxGeometry>
                </mxCell>
                <mxCell id="247" value="" style="endArrow=none;html=1;entryX=0;entryY=0.5;entryDx=0;entryDy=0;exitX=0.5;exitY=1;exitDx=0;exitDy=0;" parent="1" source="229" target="212" edge="1">
                    <mxGeometry width="50" height="50" relative="1" as="geometry">
                        <mxPoint x="434.5" y="1300" as="sourcePoint"/>
                        <mxPoint x="434.5" y="1470" as="targetPoint"/>
                        <Array as="points">
                            <mxPoint x="105" y="1545"/>
                        </Array>
                    </mxGeometry>
                </mxCell>
                <mxCell id="248" value="" style="endArrow=none;html=1;" parent="1" edge="1">
                    <mxGeometry width="50" height="50" relative="1" as="geometry">
                        <mxPoint x="330" y="1530" as="sourcePoint"/>
                        <mxPoint x="330" y="1560" as="targetPoint"/>
                    </mxGeometry>
                </mxCell>
                <mxCell id="249" value="" style="endArrow=none;html=1;exitX=0.613;exitY=1.033;exitDx=0;exitDy=0;exitPerimeter=0;" parent="1" source="229" edge="1">
                    <mxGeometry width="50" height="50" relative="1" as="geometry">
                        <mxPoint x="120" y="1320" as="sourcePoint"/>
                        <mxPoint x="105" y="1350" as="targetPoint"/>
                    </mxGeometry>
                </mxCell>
                <mxCell id="250" value="" style="endArrow=none;html=1;" parent="1" edge="1">
                    <mxGeometry width="50" height="50" relative="1" as="geometry">
                        <mxPoint x="90" y="1320" as="sourcePoint"/>
                        <mxPoint x="105" y="1350" as="targetPoint"/>
                    </mxGeometry>
                </mxCell>
                <mxCell id="251" value="friend_relations" style="rounded=1;whiteSpace=wrap;html=1;fillColor=#003300;" parent="1" vertex="1">
                    <mxGeometry x="30" y="-115" width="150" height="40" as="geometry"/>
                </mxCell>
                <mxCell id="252" value="id" style="rounded=0;whiteSpace=wrap;html=1;" parent="1" vertex="1">
                    <mxGeometry x="30" y="-75" width="150" height="30" as="geometry"/>
                </mxCell>
                <mxCell id="253" value="from_applicant_id" style="rounded=0;whiteSpace=wrap;html=1;" parent="1" vertex="1">
                    <mxGeometry x="30" y="-45" width="150" height="30" as="geometry"/>
                </mxCell>
                <mxCell id="254" value="to_target_id" style="rounded=0;whiteSpace=wrap;html=1;" parent="1" vertex="1">
                    <mxGeometry x="30" y="-15" width="150" height="30" as="geometry"/>
                </mxCell>
                <mxCell id="255" value="created_at" style="rounded=0;whiteSpace=wrap;html=1;" parent="1" vertex="1">
                    <mxGeometry x="30" y="45" width="150" height="30" as="geometry"/>
                </mxCell>
                <mxCell id="256" value="user_id (FK)" style="rounded=0;whiteSpace=wrap;html=1;" parent="1" vertex="1">
                    <mxGeometry x="30" y="105" width="150" height="30" as="geometry"/>
                </mxCell>
                <mxCell id="257" value="updated_at" style="rounded=0;whiteSpace=wrap;html=1;" parent="1" vertex="1">
                    <mxGeometry x="30" y="75" width="150" height="30" as="geometry"/>
                </mxCell>
                <mxCell id="258" value="" style="endArrow=none;html=1;entryX=0;entryY=0.5;entryDx=0;entryDy=0;exitX=0.5;exitY=1;exitDx=0;exitDy=0;" parent="1" source="256" target="3" edge="1">
                    <mxGeometry width="50" height="50" relative="1" as="geometry">
                        <mxPoint x="435" y="150" as="sourcePoint"/>
                        <mxPoint x="435" y="330" as="targetPoint"/>
                        <Array as="points">
                            <mxPoint x="105" y="230"/>
                            <mxPoint x="260" y="230"/>
                            <mxPoint x="260" y="340"/>
                        </Array>
                    </mxGeometry>
                </mxCell>
                <mxCell id="259" value="status" style="rounded=0;whiteSpace=wrap;html=1;" parent="1" vertex="1">
                    <mxGeometry x="30" y="15" width="150" height="30" as="geometry"/>
                </mxCell>
                <mxCell id="60" value="" style="endArrow=none;html=1;" parent="1" edge="1">
                    <mxGeometry width="50" height="50" relative="1" as="geometry">
                        <mxPoint x="330" y="325" as="sourcePoint"/>
                        <mxPoint x="330" y="355" as="targetPoint"/>
                    </mxGeometry>
                </mxCell>
                <mxCell id="61" value="" style="endArrow=none;html=1;exitX=0.413;exitY=1.033;exitDx=0;exitDy=0;exitPerimeter=0;" parent="1" source="256" edge="1">
                    <mxGeometry width="50" height="50" relative="1" as="geometry">
                        <mxPoint x="90" y="140" as="sourcePoint"/>
                        <mxPoint x="105" y="160" as="targetPoint"/>
                    </mxGeometry>
                </mxCell>
                <mxCell id="62" value="" style="endArrow=none;html=1;exitX=0.567;exitY=1;exitDx=0;exitDy=0;exitPerimeter=0;" parent="1" source="256" edge="1">
                    <mxGeometry width="50" height="50" relative="1" as="geometry">
                        <mxPoint x="200" y="325" as="sourcePoint"/>
                        <mxPoint x="105" y="160" as="targetPoint"/>
                    </mxGeometry>
                </mxCell>
                <mxCell id="78" value="" style="endArrow=none;html=1;exitX=0;exitY=0.25;exitDx=0;exitDy=0;" parent="1" edge="1" source="75">
                    <mxGeometry width="50" height="50" relative="1" as="geometry">
                        <mxPoint x="660" y="890" as="sourcePoint"/>
                        <mxPoint x="650" y="905" as="targetPoint"/>
                    </mxGeometry>
                </mxCell>
                <mxCell id="79" value="" style="endArrow=none;html=1;exitX=0;exitY=0.75;exitDx=0;exitDy=0;" parent="1" edge="1" source="75">
                    <mxGeometry width="50" height="50" relative="1" as="geometry">
                        <mxPoint x="650" y="890" as="sourcePoint"/>
                        <mxPoint x="650" y="905" as="targetPoint"/>
                    </mxGeometry>
                </mxCell>
                <mxCell id="86" value="" style="endArrow=none;html=1;" parent="1" edge="1">
                    <mxGeometry width="50" height="50" relative="1" as="geometry">
                        <mxPoint x="520" y="780" as="sourcePoint"/>
                        <mxPoint x="520" y="810" as="targetPoint"/>
                    </mxGeometry>
                </mxCell>
            </root>
        </mxGraphModel>
    </diagram>
</mxfile>
